<svg width='24' height='24' viewBox='0 0 24 24' xmlns='http://www.w3.org/2000/svg'
    xmlns:xlink='http://www.w3.org/1999/xlink'>
    <rect width='24' height='24' stroke='none' fill='#000000' opacity='0' />


    <g transform="matrix(0.83 0 0 0.83 12 12)">
        <g style="">
            <g transform="matrix(1 0 0 1 0 0)">
                <path
                    style="stroke: none; stroke-width: 1; stroke-dasharray: none; stroke-linecap: butt; stroke-dashoffset: 0; stroke-linejoin: miter; stroke-miterlimit: 4; fill: rgb(0,0,0); fill-rule: nonzero; opacity: 1;"
                    transform=" translate(-12, -12)"
                    d="M 4.5 20.5 L 6.5 20.5 L 6.5 22.5 L 4.5 22.5 z M 0.5 21.489 C 0.5000000000000003 22.047359882078933 0.9526401179210682 22.5 1.5110000000000003 22.5 L 2.5 22.5 L 2.5 20.5 L 0.5 20.5 z M 0.5 8.5 L 2.5 8.5 L 2.5 10.5 L 0.5 10.5 z M 0.5 12.5 L 2.5 12.5 L 2.5 14.5 L 0.5 14.5 z M 0.5 16.5 L 2.5 16.5 L 2.5 18.5 L 0.5 18.5 z M 0.5 4.5 L 2.5 4.5 L 2.5 6.5 L 0.5 6.5 z M 0.5 1.4769999999999999 L 0.5 2.5 L 2.5 2.5 L 2.5 0.5 L 1.477 0.5 C 1.2178021246173567 0.49973429207612674 0.9691439403947302 0.6025825970875641 0.7858632687411471 0.7858632687411472 C 0.602582597087564 0.9691439403947303 0.49973429207612674 1.2178021246173563 0.5000000000000001 1.4769999999999996 z M 22.5 1.4769999999999999 C 22.500265707923873 1.2178021246173563 22.397417402912435 0.96914394039473 22.214136731258854 0.7858632687411468 C 22.03085605960527 0.6025825970875636 21.782197875382643 0.4997342920761265 21.523 0.5000000000000001 L 20.5 0.5 L 20.5 2.5 L 22.5 2.5 z M 4.5 0.5 L 6.5 0.5 L 6.5 2.5 L 4.5 2.5 z M 8.5 0.5 L 10.5 0.5 L 10.5 2.5 L 8.5 2.5 z M 12.5 0.5 L 14.5 0.5 L 14.5 2.5 L 12.5 2.5 z M 8.5 20.5 L 10.5 20.5 L 10.5 22.5 L 8.5 22.5 z M 16.5 0.5 L 18.5 0.5 L 18.5 2.5 L 16.5 2.5 z M 20.5 4.5 L 22.5 4.5 L 22.5 6.5 L 20.5 6.5 z M 20.5 8.5 L 22.5 8.5 L 22.5 10.5 L 20.5 10.5 z M 12.5 12.5 L 14.7 23.5 L 23.5 14.7 L 12.5 12.5 z"
                    stroke-linecap="round" />
            </g>
            <g transform="matrix(1 0 0 1 8.75 8.75)">
                <path
                    style="stroke: rgb(0,0,0); stroke-width: 2; stroke-dasharray: none; stroke-linecap: butt; stroke-dashoffset: 0; stroke-linejoin: round; stroke-miterlimit: 4; fill: none; fill-rule: nonzero; opacity: 1;"
                    transform=" translate(-20.75, -20.75)" d="M 18 18 L 23.5 23.5" stroke-linecap="round" />
            </g>
        </g>
    </g>
</svg>